<?xml version="1.0" encoding="iso-8859-1"?>
<!-- Generator: Adobe Illustrator 21.0.2, SVG Export Plug-In . SVG Version: 6.00 Build 0)  -->
<svg xmlns="http://www.w3.org/2000/svg" xmlns:xlink="http://www.w3.org/1999/xlink" version="1.1" id="&#1057;&#1083;&#1086;&#1081;_1" x="0px" y="0px" viewBox="0 0 40 40" style="enable-background:new 0 0 40 40;" xml:space="preserve">
<g>
	<path style="fill:#37AF4C;" d="M6,37.5c-1.93,0-3.5-1.57-3.5-3.5V6c0-1.93,1.57-3.5,3.5-3.5h28c1.93,0,3.5,1.57,3.5,3.5v28   c0,1.93-1.57,3.5-3.5,3.5H6z"/>
	<path style="fill:#178838;" d="M34,3c1.654,0,3,1.346,3,3v28c0,1.654-1.346,3-3,3H6c-1.654,0-3-1.346-3-3V6c0-1.654,1.346-3,3-3H34    M34,2H6C3.791,2,2,3.791,2,6v28c0,2.209,1.791,4,4,4h28c2.209,0,4-1.791,4-4V6C38,3.791,36.209,2,34,2L34,2z"/>
</g>
<path style="fill:#BFDED0;" d="M34,34H6c-1.657,0-3-1.343-3-3V6c0-1.657,1.343-3,3-3h28c1.657,0,3,1.343,3,3v25  C37,32.657,35.657,34,34,34z"/>
<g>
	<path style="fill:#178838;" d="M20.326,24.95h-1.712l-1.399-3.699h-5.595l-1.316,3.699H8.584l5.061-13.196h1.601L20.326,24.95z    M16.709,19.862l-2.07-5.622c-0.067-0.184-0.135-0.479-0.202-0.883H14.4c-0.061,0.374-0.132,0.669-0.212,0.883l-2.052,5.622H16.709   z"/>
	<path style="fill:#178838;" d="M23.574,24.95h-1.509V11h1.509V24.95z"/>
	<path style="fill:#178838;" d="M31,24.858c-0.356,0.196-0.825,0.294-1.408,0.294c-1.65,0-2.475-0.92-2.475-2.761v-5.576h-1.62   v-1.288h1.62v-2.301l1.509-0.488v2.788H31v1.288h-2.374v5.31c0,0.632,0.107,1.083,0.322,1.353s0.571,0.405,1.067,0.405   c0.38,0,0.709-0.104,0.985-0.313V24.858z"/>
</g>
</svg>
