<?xml version="1.0" encoding="iso-8859-1"?>
<!-- Generator: Adobe Illustrator 21.0.2, SVG Export Plug-In . SVG Version: 6.00 Build 0)  -->
<svg xmlns="http://www.w3.org/2000/svg" xmlns:xlink="http://www.w3.org/1999/xlink" version="1.1" id="&#1057;&#1083;&#1086;&#1081;_1" x="0px" y="0px" viewBox="0 0 40 40" style="enable-background:new 0 0 40 40;" xml:space="preserve">
<g>
	<path style="fill:#37DF6C;" d="M6,37.5c-1.93,0-3.5-1.57-3.5-3.5V6c0-1.93,1.57-3.5,3.5-3.5h28c1.93,0,3.5,1.57,3.5,3.5v28   c0,1.93-1.57,3.5-3.5,3.5H6z"/>
	<path style="fill:#17A848;" d="M34,3c1.654,0,3,1.346,3,3v28c0,1.654-1.346,3-3,3H6c-1.654,0-3-1.346-3-3V6c0-1.654,1.346-3,3-3H34    M34,2H6C3.791,2,2,3.791,2,6v28c0,2.209,1.791,4,4,4h28c2.209,0,4-1.791,4-4V6C38,3.791,36.209,2,34,2L34,2z"/>
</g>
<path style="fill:#BFDED0;" d="M34,34H6c-1.657,0-3-1.343-3-3V6c0-1.657,1.343-3,3-3h28c1.657,0,3,1.343,3,3v25  C37,32.657,35.657,34,34,34z"/>
<g>
	<path style="fill:#17A848;" d="M13.318,22.711h-1.215l-0.993-2.575H7.136l-0.934,2.575H4.979l3.594-9.186H9.71L13.318,22.711z    M10.749,19.169l-1.47-3.914c-0.048-0.128-0.096-0.333-0.144-0.615H9.109c-0.044,0.261-0.093,0.466-0.15,0.615l-1.457,3.914H10.749   z"/>
	<path style="fill:#17A848;" d="M15.624,22.711h-1.072V13h1.072V22.711z"/>
	<path style="fill:#17A848;" d="M20.898,22.647c-0.253,0.136-0.586,0.205-1,0.205c-1.172,0-1.758-0.641-1.758-1.922v-3.882h-1.15   v-0.897h1.15V14.55l1.072-0.34v1.941h1.686v0.897h-1.686v3.696c0,0.44,0.076,0.754,0.229,0.942   c0.152,0.188,0.405,0.282,0.758,0.282c0.27,0,0.503-0.072,0.699-0.218V22.647z"/>
	<path style="fill:#17A848;" d="M29.478,22.084c-0.941,0.521-1.987,0.782-3.137,0.782c-1.338,0-2.419-0.423-3.245-1.268   s-1.238-1.965-1.238-3.357c0-1.422,0.459-2.589,1.376-3.501c0.917-0.912,2.079-1.368,3.486-1.368c1.019,0,1.875,0.162,2.568,0.487   v1.192c-0.758-0.47-1.655-0.705-2.692-0.705c-1.05,0-1.91,0.354-2.581,1.063c-0.671,0.709-1.006,1.627-1.006,2.755   c0,1.161,0.312,2.074,0.934,2.739c0.623,0.664,1.468,0.996,2.535,0.996c0.732,0,1.366-0.143,1.902-0.429v-2.575h-2.052V17.92h3.15   V22.084z"/>
	<path style="fill:#17A848;" d="M35,17.215c-0.188-0.141-0.457-0.211-0.81-0.211c-0.457,0-0.84,0.211-1.147,0.634   c-0.307,0.423-0.461,0.999-0.461,1.73v3.344H31.51v-6.56h1.072v1.352h0.026c0.152-0.461,0.386-0.821,0.699-1.079   c0.314-0.258,0.665-0.388,1.052-0.388c0.279,0,0.492,0.03,0.64,0.09V17.215z"/>
</g>
</svg>
