<?xml version="1.0" encoding="iso-8859-1"?>
<!-- Generator: Adobe Illustrator 19.2.0, SVG Export Plug-In . SVG Version: 6.00 Build 0)  -->
<svg xmlns="http://www.w3.org/2000/svg" xmlns:xlink="http://www.w3.org/1999/xlink" version="1.1" id="Layer_1" x="0px" y="0px" viewBox="0 0 40 40" style="enable-background:new 0 0 40 40;" xml:space="preserve">
<g>
	<path style="fill:#787878;" d="M5,32.5c-1.93,0-3.5-1.57-3.5-3.5V11c0-1.93,1.57-3.5,3.5-3.5h30c1.93,0,3.5,1.57,3.5,3.5v18   c0,1.93-1.57,3.5-3.5,3.5H5z"/>
	<g>
		<path style="fill:#686868;" d="M35,8c1.654,0,3,1.346,3,3v18c0,1.654-1.346,3-3,3H5c-1.654,0-3-1.346-3-3V11c0-1.654,1.346-3,3-3    H35 M35,7H5c-2.209,0-4,1.791-4,4v18c0,2.209,1.791,4,4,4h30c2.209,0,4-1.791,4-4V11C39,8.791,37.209,7,35,7L35,7z"/>
	</g>
</g>
<path style="fill:#CECECE;" d="M35,30H5c-1.657,0-3-1.343-3-3V11c0-1.657,1.343-3,3-3h30c1.657,0,3,1.343,3,3v16  C38,28.657,36.657,30,35,30z"/>
<g>
	<path style="fill:#686868;" d="M15,21h15.5c0.828,0,1.5-0.672,1.5-1.5v0c0-0.828-0.672-1.5-1.5-1.5H15v-5l-7,6.5l7,6.5V21z"/>
</g>
</svg>
