<?xml version="1.0" encoding="iso-8859-1"?>
<!-- Generator: Adobe Illustrator 21.0.2, SVG Export Plug-In . SVG Version: 6.00 Build 0)  -->
<svg xmlns="http://www.w3.org/2000/svg" xmlns:xlink="http://www.w3.org/1999/xlink" version="1.1" id="&#1057;&#1083;&#1086;&#1081;_1" x="0px" y="0px" viewBox="0 0 40 40" style="enable-background:new 0 0 40 40;" xml:space="preserve">
<g>
	<path style="fill:#DA4444;" d="M6,37.5c-1.93,0-3.5-1.57-3.5-3.5V6c0-1.93,1.57-3.5,3.5-3.5h28c1.93,0,3.5,1.57,3.5,3.5v28   c0,1.93-1.57,3.5-3.5,3.5H6z"/>
	<path style="fill:#E45F5F;" d="M34,3c1.654,0,3,1.346,3,3v28c0,1.654-1.346,3-3,3H6c-1.654,0-3-1.346-3-3V6c0-1.654,1.346-3,3-3H34    M34,2H6C3.791,2,2,3.791,2,6v28c0,2.209,1.791,4,4,4h28c2.209,0,4-1.791,4-4V6C38,3.791,36.209,2,34,2L34,2z"/>
</g>
<path style="fill:#ECA9A9;" d="M34,34H6c-1.657,0-3-1.343-3-3V6c0-1.657,1.343-3,3-3h28c1.657,0,3,1.343,3,3v25  C37,32.657,35.657,34,34,34z"/>
<g>
	<path style="fill:#000000;" d="M16.723,24.303C15.843,24.768,14.747,25,13.435,25c-1.694,0-3.05-0.545-4.068-1.636   c-1.018-1.09-1.528-2.521-1.528-4.293c0-1.904,0.573-3.443,1.719-4.616s2.599-1.76,4.359-1.76c1.129,0,2.065,0.163,2.806,0.49   v1.486c-0.852-0.476-1.793-0.714-2.823-0.714c-1.367,0-2.476,0.457-3.325,1.37C9.725,16.241,9.3,17.461,9.3,18.989   c0,1.45,0.397,2.606,1.191,3.466c0.794,0.861,1.836,1.291,3.126,1.291c1.196,0,2.231-0.266,3.105-0.797V24.303z"/>
	<path style="fill:#000000;" d="M22.908,24.718c-0.321,0.177-0.744,0.266-1.27,0.266c-1.489,0-2.233-0.83-2.233-2.491v-5.032h-1.461   v-1.162h1.461v-2.076l1.362-0.44v2.516h2.142v1.162h-2.142v4.791c0,0.57,0.097,0.977,0.291,1.221   c0.194,0.244,0.515,0.365,0.963,0.365c0.343,0,0.639-0.094,0.888-0.282V24.718z"/>
	<path style="fill:#000000;" d="M29.16,17.677c-0.238-0.183-0.581-0.274-1.03-0.274c-0.581,0-1.067,0.274-1.457,0.822   s-0.585,1.295-0.585,2.242v4.334h-1.362v-8.502h1.362v1.752h0.033c0.194-0.598,0.49-1.064,0.888-1.399   c0.399-0.335,0.844-0.502,1.337-0.502c0.354,0,0.625,0.039,0.814,0.116V17.677z"/>
	<path style="fill:#000000;" d="M32,24.801h-1.362V12.214H32V24.801z"/>
</g>
</svg>
