<?xml version="1.0" encoding="iso-8859-1"?>
<!-- Generator: Adobe Illustrator 21.0.2, SVG Export Plug-In . SVG Version: 6.00 Build 0)  -->
<svg xmlns="http://www.w3.org/2000/svg" xmlns:xlink="http://www.w3.org/1999/xlink" version="1.1" id="&#1057;&#1083;&#1086;&#1081;_1" x="0px" y="0px" viewBox="0 0 40 40" style="enable-background:new 0 0 40 40;" xml:space="preserve">
<g>
	<path style="fill:#B6DCFE;" d="M4,33.5c-1.379,0-2.5-1.175-2.5-2.62V11.12C1.5,9.675,2.621,8.5,4,8.5h32   c1.379,0,2.5,1.175,2.5,2.62v19.76c0,1.445-1.121,2.62-2.5,2.62H4z"/>
	<path style="fill:#4788C7;" d="M36,9c1.103,0,2,0.951,2,2.12v19.76c0,1.169-0.897,2.12-2,2.12H4c-1.103,0-2-0.951-2-2.12V11.12   C2,9.951,2.897,9,4,9H36 M36,8H4c-1.657,0-3,1.397-3,3.12v19.76C1,32.603,2.343,34,4,34h32c1.657,0,3-1.397,3-3.12V11.12   C39,9.397,37.657,8,36,8L36,8z"/>
</g>
<path style="fill:#DFF0FE;" d="M35,31H5c-1.657,0-3-1.343-3-3V12c0-1.657,1.343-3,3-3h30c1.657,0,3,1.343,3,3v16  C38,29.657,36.657,31,35,31z"/>
<g>
	<polygon style="fill:#4788C7;" points="18,19 18,29 22,29 22,19 27,19 20,12 13,19  "/>
</g>
</svg>
